<svg width="189" height="32" viewBox="0 0 189 32" fill="none" xmlns="http://www.w3.org/2000/svg">
<path d="M3.38477 0.78125V15H0.464844V0.78125H3.38477ZM17.7012 0.78125V15H14.7715L9.05859 5.46875V15H6.12891V0.78125H9.05859L14.7812 10.3223V0.78125H17.7012ZM27.6523 11.2793C27.6523 11.0254 27.6133 10.7975 27.5352 10.5957C27.4635 10.3874 27.3268 10.1986 27.125 10.0293C26.9232 9.85352 26.64 9.68099 26.2754 9.51172C25.9108 9.34245 25.4388 9.16667 24.8594 8.98438C24.2148 8.77604 23.6029 8.54167 23.0234 8.28125C22.4505 8.02083 21.9427 7.7181 21.5 7.37305C21.0638 7.02148 20.7188 6.61458 20.4648 6.15234C20.2174 5.6901 20.0938 5.15299 20.0938 4.54102C20.0938 3.94857 20.224 3.41146 20.4844 2.92969C20.7448 2.44141 21.1094 2.02474 21.5781 1.67969C22.0469 1.32812 22.6003 1.05794 23.2383 0.869141C23.8828 0.680339 24.5892 0.585938 25.3574 0.585938C26.4056 0.585938 27.3203 0.77474 28.1016 1.15234C28.8828 1.52995 29.4883 2.04753 29.918 2.70508C30.3542 3.36263 30.5723 4.11458 30.5723 4.96094H27.6621C27.6621 4.54427 27.5742 4.17969 27.3984 3.86719C27.2292 3.54818 26.9688 3.29753 26.6172 3.11523C26.2721 2.93294 25.8359 2.8418 25.3086 2.8418C24.8008 2.8418 24.3776 2.91992 24.0391 3.07617C23.7005 3.22591 23.4466 3.43099 23.2773 3.69141C23.1081 3.94531 23.0234 4.23177 23.0234 4.55078C23.0234 4.79167 23.082 5.00977 23.1992 5.20508C23.3229 5.40039 23.5052 5.58268 23.7461 5.75195C23.987 5.92122 24.2832 6.08073 24.6348 6.23047C24.9863 6.38021 25.3932 6.52669 25.8555 6.66992C26.6302 6.9043 27.3105 7.16797 27.8965 7.46094C28.4889 7.75391 28.9837 8.08268 29.3809 8.44727C29.778 8.81185 30.0775 9.22526 30.2793 9.6875C30.4811 10.1497 30.582 10.6738 30.582 11.2598C30.582 11.8783 30.4616 12.4316 30.2207 12.9199C29.9798 13.4082 29.6315 13.8216 29.1758 14.1602C28.7201 14.4987 28.1764 14.7559 27.5449 14.9316C26.9134 15.1074 26.207 15.1953 25.4258 15.1953C24.7227 15.1953 24.0293 15.1042 23.3457 14.9219C22.6621 14.7331 22.0404 14.4499 21.4805 14.0723C20.9271 13.6947 20.4844 13.2129 20.1523 12.627C19.8203 12.041 19.6543 11.3477 19.6543 10.5469H22.5938C22.5938 10.9896 22.6621 11.3639 22.7988 11.6699C22.9355 11.9759 23.1276 12.2233 23.375 12.4121C23.6289 12.6009 23.9284 12.7376 24.2734 12.8223C24.625 12.9069 25.0091 12.9492 25.4258 12.9492C25.9336 12.9492 26.3503 12.8776 26.6758 12.7344C27.0078 12.5911 27.252 12.3926 27.4082 12.1387C27.571 11.8848 27.6523 11.5983 27.6523 11.2793ZM38.9316 0.78125V15H36.0117V0.78125H38.9316ZM43.3066 0.78125V3.07617H31.7051V0.78125H43.3066ZM48.0918 0.78125V15H45.1719V0.78125H48.0918ZM56.9004 0.78125V15H53.9805V0.78125H56.9004ZM61.2754 0.78125V3.07617H49.6738V0.78125H61.2754ZM70.7969 0.78125H73.7168V10.1758C73.7168 11.2695 73.4824 12.1908 73.0137 12.9395C72.5514 13.6882 71.9102 14.2513 71.0898 14.6289C70.276 15.0065 69.3385 15.1953 68.2773 15.1953C67.2161 15.1953 66.2721 15.0065 65.4453 14.6289C64.625 14.2513 63.9805 13.6882 63.5117 12.9395C63.0495 12.1908 62.8184 11.2695 62.8184 10.1758V0.78125H65.748V10.1758C65.748 10.8138 65.849 11.3346 66.0508 11.7383C66.2526 12.1419 66.5423 12.4382 66.9199 12.627C67.304 12.8158 67.7565 12.9102 68.2773 12.9102C68.8112 12.9102 69.2637 12.8158 69.6348 12.627C70.0124 12.4382 70.2988 12.1419 70.4941 11.7383C70.696 11.3346 70.7969 10.8138 70.7969 10.1758V0.78125ZM82.4863 0.78125V15H79.5664V0.78125H82.4863ZM86.8613 0.78125V3.07617H75.2598V0.78125H86.8613ZM99.9375 7.55859V8.23242C99.9375 9.31315 99.791 10.2832 99.498 11.1426C99.2051 12.002 98.7917 12.7344 98.2578 13.3398C97.724 13.9388 97.0859 14.3978 96.3438 14.7168C95.6081 15.0358 94.791 15.1953 93.8926 15.1953C93.0007 15.1953 92.1836 15.0358 91.4414 14.7168C90.7057 14.3978 90.0677 13.9388 89.5273 13.3398C88.987 12.7344 88.5671 12.002 88.2676 11.1426C87.9746 10.2832 87.8281 9.31315 87.8281 8.23242V7.55859C87.8281 6.47135 87.9746 5.5013 88.2676 4.64844C88.5605 3.78906 88.974 3.05664 89.5078 2.45117C90.0482 1.8457 90.6862 1.38346 91.4219 1.06445C92.1641 0.745443 92.9811 0.585938 93.873 0.585938C94.7715 0.585938 95.5885 0.745443 96.3242 1.06445C97.0664 1.38346 97.7044 1.8457 98.2383 2.45117C98.7786 3.05664 99.1953 3.78906 99.4883 4.64844C99.7878 5.5013 99.9375 6.47135 99.9375 7.55859ZM96.9785 8.23242V7.53906C96.9785 6.78385 96.9102 6.11979 96.7734 5.54688C96.6367 4.97396 96.4349 4.49219 96.168 4.10156C95.901 3.71094 95.5755 3.41797 95.1914 3.22266C94.8073 3.02083 94.3678 2.91992 93.873 2.91992C93.3783 2.91992 92.9388 3.02083 92.5547 3.22266C92.1771 3.41797 91.8548 3.71094 91.5879 4.10156C91.3275 4.49219 91.1289 4.97396 90.9922 5.54688C90.8555 6.11979 90.7871 6.78385 90.7871 7.53906V8.23242C90.7871 8.98112 90.8555 9.64518 90.9922 10.2246C91.1289 10.7975 91.3307 11.2826 91.5977 11.6797C91.8646 12.0703 92.1901 12.3665 92.5742 12.5684C92.9583 12.7702 93.3978 12.8711 93.8926 12.8711C94.3874 12.8711 94.8268 12.7702 95.2109 12.5684C95.5951 12.3665 95.9173 12.0703 96.1777 11.6797C96.4382 11.2826 96.6367 10.7975 96.7734 10.2246C96.9102 9.64518 96.9785 8.98112 96.9785 8.23242ZM109.957 0.78125V15H107.027V0.78125H109.957ZM115.621 6.85547V9.14062H109.156V6.85547H115.621ZM116.305 0.78125V3.07617H109.156V0.78125H116.305ZM127.545 12.7148V15H119.977V12.7148H127.545ZM120.934 0.78125V15H118.004V0.78125H120.934ZM126.559 6.57227V8.79883H119.977V6.57227H126.559ZM127.535 0.78125V3.07617H119.977V0.78125H127.535ZM133.619 15H130.523L130.543 12.7148H133.619C134.387 12.7148 135.035 12.5423 135.562 12.1973C136.09 11.8457 136.487 11.3346 136.754 10.6641C137.027 9.99349 137.164 9.18294 137.164 8.23242V7.53906C137.164 6.8099 137.086 6.16862 136.93 5.61523C136.78 5.06185 136.555 4.59635 136.256 4.21875C135.956 3.84115 135.589 3.55794 135.152 3.36914C134.716 3.17383 134.215 3.07617 133.648 3.07617H130.465V0.78125H133.648C134.599 0.78125 135.468 0.94401 136.256 1.26953C137.05 1.58854 137.737 2.04753 138.316 2.64648C138.896 3.24544 139.342 3.96159 139.654 4.79492C139.973 5.62174 140.133 6.54297 140.133 7.55859V8.23242C140.133 9.24154 139.973 10.1628 139.654 10.9961C139.342 11.8294 138.896 12.5456 138.316 13.1445C137.743 13.737 137.057 14.196 136.256 14.5215C135.462 14.8405 134.583 15 133.619 15ZM132.184 0.78125V15H129.254V0.78125H132.184ZM151.803 12.7148V15H144.234V12.7148H151.803ZM145.191 0.78125V15H142.262V0.78125H145.191ZM150.816 6.57227V8.79883H144.234V6.57227H150.816ZM151.793 0.78125V3.07617H144.234V0.78125H151.793ZM153.512 0.78125H158.814C159.902 0.78125 160.836 0.94401 161.617 1.26953C162.405 1.59505 163.01 2.07682 163.434 2.71484C163.857 3.35286 164.068 4.13737 164.068 5.06836C164.068 5.83008 163.938 6.48438 163.678 7.03125C163.424 7.57161 163.062 8.02409 162.594 8.38867C162.132 8.74674 161.588 9.0332 160.963 9.24805L160.035 9.73633H155.426L155.406 7.45117H158.834C159.348 7.45117 159.775 7.36003 160.113 7.17773C160.452 6.99544 160.706 6.74154 160.875 6.41602C161.051 6.09049 161.139 5.71289 161.139 5.2832C161.139 4.82747 161.054 4.43359 160.885 4.10156C160.715 3.76953 160.458 3.51562 160.113 3.33984C159.768 3.16406 159.335 3.07617 158.814 3.07617H156.441V15H153.512V0.78125ZM161.461 15L158.219 8.66211L161.314 8.64258L164.596 14.8633V15H161.461ZM172.105 3.21289L168.238 15H165.123L170.406 0.78125H172.389L172.105 3.21289ZM175.318 15L171.441 3.21289L171.129 0.78125H173.131L178.443 15H175.318ZM175.143 9.70703V12.002H167.633V9.70703H175.143ZM188.902 12.7148V15H181.744V12.7148H188.902ZM182.691 0.78125V15H179.762V0.78125H182.691ZM3.82617 27.0967H1.16699V26.0234H3.82617C4.34115 26.0234 4.75814 25.9414 5.07715 25.7773C5.39616 25.6133 5.62858 25.3854 5.77441 25.0938C5.9248 24.8021 6 24.4694 6 24.0957C6 23.7539 5.9248 23.4326 5.77441 23.1318C5.62858 22.8311 5.39616 22.5895 5.07715 22.4072C4.75814 22.2204 4.34115 22.127 3.82617 22.127H1.47461V31H0.155273V21.0469H3.82617C4.57812 21.0469 5.21387 21.1768 5.7334 21.4365C6.25293 21.6963 6.64714 22.0563 6.91602 22.5166C7.1849 22.9723 7.31934 23.4941 7.31934 24.082C7.31934 24.7201 7.1849 25.2646 6.91602 25.7158C6.64714 26.167 6.25293 26.5111 5.7334 26.748C5.21387 26.9805 4.57812 27.0967 3.82617 27.0967ZM13.0752 29.7354V25.9277C13.0752 25.6361 13.016 25.3831 12.8975 25.1689C12.7835 24.9502 12.6104 24.7816 12.3779 24.6631C12.1455 24.5446 11.8584 24.4854 11.5166 24.4854C11.1976 24.4854 10.9173 24.54 10.6758 24.6494C10.4388 24.7588 10.252 24.9023 10.1152 25.0801C9.98307 25.2578 9.91699 25.4492 9.91699 25.6543H8.65234C8.65234 25.39 8.7207 25.1279 8.85742 24.8682C8.99414 24.6084 9.1901 24.3737 9.44531 24.1641C9.70508 23.9499 10.015 23.7812 10.375 23.6582C10.7396 23.5306 11.1452 23.4668 11.5918 23.4668C12.1296 23.4668 12.6035 23.5579 13.0137 23.7402C13.4284 23.9225 13.752 24.1982 13.9844 24.5674C14.2214 24.932 14.3398 25.39 14.3398 25.9414V29.3867C14.3398 29.6328 14.3604 29.8949 14.4014 30.1729C14.4469 30.4508 14.513 30.6901 14.5996 30.8906V31H13.2803C13.2165 30.8542 13.1663 30.6605 13.1299 30.4189C13.0934 30.1729 13.0752 29.945 13.0752 29.7354ZM13.2939 26.5156L13.3076 27.4043H12.0293C11.6693 27.4043 11.348 27.4339 11.0654 27.4932C10.7829 27.5479 10.5459 27.6322 10.3545 27.7461C10.1631 27.86 10.0173 28.0036 9.91699 28.1768C9.81673 28.3454 9.7666 28.5436 9.7666 28.7715C9.7666 29.0039 9.81901 29.2158 9.92383 29.4072C10.0286 29.5986 10.1859 29.7513 10.3955 29.8652C10.6097 29.9746 10.8717 30.0293 11.1816 30.0293C11.569 30.0293 11.9108 29.9473 12.207 29.7832C12.5033 29.6191 12.738 29.4186 12.9111 29.1816C13.0889 28.9447 13.1846 28.7145 13.1982 28.4912L13.7383 29.0996C13.7064 29.291 13.6198 29.5029 13.4785 29.7354C13.3372 29.9678 13.1481 30.1911 12.9111 30.4053C12.6787 30.6149 12.4007 30.7904 12.0771 30.9316C11.7581 31.0684 11.3981 31.1367 10.9971 31.1367C10.4958 31.1367 10.056 31.0387 9.67773 30.8428C9.30404 30.6468 9.01237 30.3848 8.80273 30.0566C8.59766 29.724 8.49512 29.3525 8.49512 28.9424C8.49512 28.5459 8.57259 28.1973 8.72754 27.8965C8.88249 27.5911 9.10579 27.3382 9.39746 27.1377C9.68913 26.9326 10.04 26.7777 10.4502 26.6729C10.8604 26.568 11.3184 26.5156 11.8242 26.5156H13.2939ZM17.5938 24.7656V31H16.3291V23.6035H17.5596L17.5938 24.7656ZM19.9043 23.5625L19.8975 24.7383C19.7926 24.7155 19.6924 24.7018 19.5967 24.6973C19.5055 24.6882 19.4007 24.6836 19.2822 24.6836C18.9906 24.6836 18.7331 24.7292 18.5098 24.8203C18.2865 24.9115 18.0973 25.0391 17.9424 25.2031C17.7874 25.3672 17.6644 25.5632 17.5732 25.791C17.4867 26.0143 17.4297 26.2604 17.4023 26.5293L17.0469 26.7344C17.0469 26.2878 17.0902 25.8685 17.1768 25.4766C17.2679 25.0846 17.4069 24.7383 17.5938 24.4375C17.7806 24.1322 18.0176 23.8952 18.3047 23.7266C18.5964 23.5534 18.9427 23.4668 19.3438 23.4668C19.4349 23.4668 19.5397 23.4782 19.6582 23.501C19.7767 23.5192 19.8587 23.5397 19.9043 23.5625ZM25.1611 29.7354V25.9277C25.1611 25.6361 25.1019 25.3831 24.9834 25.1689C24.8695 24.9502 24.6963 24.7816 24.4639 24.6631C24.2314 24.5446 23.9443 24.4854 23.6025 24.4854C23.2835 24.4854 23.0033 24.54 22.7617 24.6494C22.5247 24.7588 22.3379 24.9023 22.2012 25.0801C22.069 25.2578 22.0029 25.4492 22.0029 25.6543H20.7383C20.7383 25.39 20.8066 25.1279 20.9434 24.8682C21.0801 24.6084 21.276 24.3737 21.5312 24.1641C21.791 23.9499 22.1009 23.7812 22.4609 23.6582C22.8255 23.5306 23.2311 23.4668 23.6777 23.4668C24.2155 23.4668 24.6895 23.5579 25.0996 23.7402C25.5143 23.9225 25.8379 24.1982 26.0703 24.5674C26.3073 24.932 26.4258 25.39 26.4258 25.9414V29.3867C26.4258 29.6328 26.4463 29.8949 26.4873 30.1729C26.5329 30.4508 26.599 30.6901 26.6855 30.8906V31H25.3662C25.3024 30.8542 25.2523 30.6605 25.2158 30.4189C25.1794 30.1729 25.1611 29.945 25.1611 29.7354ZM25.3799 26.5156L25.3936 27.4043H24.1152C23.7552 27.4043 23.4339 27.4339 23.1514 27.4932C22.8688 27.5479 22.6318 27.6322 22.4404 27.7461C22.249 27.86 22.1032 28.0036 22.0029 28.1768C21.9027 28.3454 21.8525 28.5436 21.8525 28.7715C21.8525 29.0039 21.9049 29.2158 22.0098 29.4072C22.1146 29.5986 22.2718 29.7513 22.4814 29.8652C22.6956 29.9746 22.9577 30.0293 23.2676 30.0293C23.6549 30.0293 23.9967 29.9473 24.293 29.7832C24.5892 29.6191 24.8239 29.4186 24.9971 29.1816C25.1748 28.9447 25.2705 28.7145 25.2842 28.4912L25.8242 29.0996C25.7923 29.291 25.7057 29.5029 25.5645 29.7354C25.4232 29.9678 25.234 30.1911 24.9971 30.4053C24.7646 30.6149 24.4867 30.7904 24.1631 30.9316C23.8441 31.0684 23.484 31.1367 23.083 31.1367C22.5817 31.1367 22.1419 31.0387 21.7637 30.8428C21.39 30.6468 21.0983 30.3848 20.8887 30.0566C20.6836 29.724 20.5811 29.3525 20.5811 28.9424C20.5811 28.5459 20.6585 28.1973 20.8135 27.8965C20.9684 27.5911 21.1917 27.3382 21.4834 27.1377C21.7751 26.9326 22.126 26.7777 22.5361 26.6729C22.9463 26.568 23.4043 26.5156 23.9102 26.5156H25.3799ZM29.6797 25.1826V31H28.415V23.6035H29.6113L29.6797 25.1826ZM29.3789 27.0215L28.8525 27.001C28.8571 26.4951 28.9323 26.028 29.0781 25.5996C29.224 25.1667 29.429 24.7907 29.6934 24.4717C29.9577 24.1527 30.2721 23.9066 30.6367 23.7334C31.0059 23.5557 31.4137 23.4668 31.8604 23.4668C32.2249 23.4668 32.5531 23.5169 32.8447 23.6172C33.1364 23.7129 33.3848 23.8678 33.5898 24.082C33.7995 24.2962 33.959 24.5742 34.0684 24.916C34.1777 25.2533 34.2324 25.6657 34.2324 26.1533V31H32.9609V26.1396C32.9609 25.7523 32.904 25.4424 32.79 25.21C32.6761 24.973 32.5098 24.8021 32.291 24.6973C32.0723 24.5879 31.8034 24.5332 31.4844 24.5332C31.1699 24.5332 30.8828 24.5993 30.623 24.7314C30.3678 24.8636 30.1468 25.0459 29.96 25.2783C29.7777 25.5107 29.6341 25.7773 29.5293 26.0781C29.429 26.3743 29.3789 26.6888 29.3789 27.0215ZM40.5146 29.7354V25.9277C40.5146 25.6361 40.4554 25.3831 40.3369 25.1689C40.223 24.9502 40.0498 24.7816 39.8174 24.6631C39.585 24.5446 39.2979 24.4854 38.9561 24.4854C38.637 24.4854 38.3568 24.54 38.1152 24.6494C37.8783 24.7588 37.6914 24.9023 37.5547 25.0801C37.4225 25.2578 37.3564 25.4492 37.3564 25.6543H36.0918C36.0918 25.39 36.1602 25.1279 36.2969 24.8682C36.4336 24.6084 36.6296 24.3737 36.8848 24.1641C37.1445 23.9499 37.4544 23.7812 37.8145 23.6582C38.179 23.5306 38.5846 23.4668 39.0312 23.4668C39.569 23.4668 40.043 23.5579 40.4531 23.7402C40.8678 23.9225 41.1914 24.1982 41.4238 24.5674C41.6608 24.932 41.7793 25.39 41.7793 25.9414V29.3867C41.7793 29.6328 41.7998 29.8949 41.8408 30.1729C41.8864 30.4508 41.9525 30.6901 42.0391 30.8906V31H40.7197C40.6559 30.8542 40.6058 30.6605 40.5693 30.4189C40.5329 30.1729 40.5146 29.945 40.5146 29.7354ZM40.7334 26.5156L40.7471 27.4043H39.4688C39.1087 27.4043 38.7874 27.4339 38.5049 27.4932C38.2223 27.5479 37.9854 27.6322 37.7939 27.7461C37.6025 27.86 37.4567 28.0036 37.3564 28.1768C37.2562 28.3454 37.2061 28.5436 37.2061 28.7715C37.2061 29.0039 37.2585 29.2158 37.3633 29.4072C37.4681 29.5986 37.6253 29.7513 37.835 29.8652C38.0492 29.9746 38.3112 30.0293 38.6211 30.0293C39.0085 30.0293 39.3503 29.9473 39.6465 29.7832C39.9427 29.6191 40.1774 29.4186 40.3506 29.1816C40.5283 28.9447 40.624 28.7145 40.6377 28.4912L41.1777 29.0996C41.1458 29.291 41.0592 29.5029 40.918 29.7354C40.7767 29.9678 40.5876 30.1911 40.3506 30.4053C40.1182 30.6149 39.8402 30.7904 39.5166 30.9316C39.1976 31.0684 38.8376 31.1367 38.4365 31.1367C37.9352 31.1367 37.4954 31.0387 37.1172 30.8428C36.7435 30.6468 36.4518 30.3848 36.2422 30.0566C36.0371 29.724 35.9346 29.3525 35.9346 28.9424C35.9346 28.5459 36.012 28.1973 36.167 27.8965C36.3219 27.5911 36.5452 27.3382 36.8369 27.1377C37.1286 26.9326 37.4795 26.7777 37.8896 26.6729C38.2998 26.568 38.7578 26.5156 39.2637 26.5156H40.7334ZM38.4707 22.5098L39.7969 20.5H41.3213L39.4893 22.5098H38.4707Z" fill="white"/>
</svg>
