<svg width="22" height="20" viewBox="0 0 22 20" fill="none" xmlns="http://www.w3.org/2000/svg">
<path fill-rule="evenodd" clip-rule="evenodd" d="M10.3523 16.2646C10.4802 16.3414 10.6171 16.3753 10.75 16.3737C10.8829 16.3753 11.0198 16.3414 11.1477 16.2646L12.283 15.5834C14.5095 14.2475 17.2325 14.0293 19.6433 14.9937C20.5326 15.3494 21.5 14.6944 21.5 13.7366V2.07772C21.5 1.49977 21.1481 0.980048 20.6115 0.765403C17.5064 -0.476632 13.9992 -0.195609 11.1315 1.52501L10.75 1.75393L10.3685 1.52501C7.50077 -0.195609 3.99357 -0.476632 0.888482 0.765403C0.35187 0.980048 0 1.49977 0 2.07772V13.7366C0 14.6944 0.967392 15.3494 1.85672 14.9937C4.26752 14.0293 6.99052 14.2475 9.21701 15.5834L10.3523 16.2646ZM1.5 2.13655V13.5233C4.29579 12.4753 7.42179 12.757 9.98875 14.2972L10 14.3039V3.05321L9.59673 2.81125C7.14774 1.34186 4.15634 1.09352 1.5 2.13655ZM11.5112 14.2972L11.5 14.3039V3.05321L11.9033 2.81125C14.3523 1.34186 17.3437 1.09352 20 2.13655V13.5233C17.2042 12.4753 14.0782 12.757 11.5112 14.2972Z" fill="white"/>
<path d="M8.02516 16.6708C6.0013 15.4902 3.4987 15.4902 1.47484 16.6708L1.3721 16.7307C1.01431 16.9395 0.893456 17.3987 1.10217 17.7565C1.31088 18.1143 1.77011 18.2351 2.1279 18.0264L2.23065 17.9665C3.78746 17.0583 5.71254 17.0583 7.26935 17.9665L8.35661 18.6007C9.83558 19.4634 11.6644 19.4634 13.1434 18.6007L14.2306 17.9665C15.7875 17.0583 17.7125 17.0583 19.2694 17.9665L19.3721 18.0264C19.7299 18.2351 20.1891 18.1143 20.3978 17.7565C20.6065 17.3987 20.4857 16.9395 20.1279 16.7307L20.0252 16.6708C18.0013 15.4902 15.4987 15.4902 13.4748 16.6708L12.3876 17.305C11.3757 17.8953 10.1243 17.8953 9.11242 17.305L8.02516 16.6708Z" fill="white"/>
</svg>
